<?xml version="1.0" encoding="UTF-8"?>
<!DOCTYPE svg PUBLIC "-//W3C//DTD SVG 1.1//EN" "http://www.w3.org/Graphics/SVG/1.1/DTD/svg11.dtd">
<svg version="1.1" xmlns="http://www.w3.org/2000/svg" xmlns:xlink="http://www.w3.org/1999/xlink" x="0" y="0" width="53.364" height="80" viewBox="0, 0, 53.364, 80">
  <g id="Layer_1">
    <g>
      <path d="M52.708,70.6 L37.208,39.7 L37.208,23.2 C38.508,23.2 39.608,22.1 39.608,20.8 C39.608,19.5 38.508,18.4 37.208,18.4 L16.208,18.4 C14.908,18.4 13.808,19.5 13.808,20.8 C13.808,22.1 14.908,23.2 16.208,23.2 L16.208,39.7 L0.708,70.6 C-1.492,74.9 1.708,80 6.508,80 L46.708,80 C51.608,80 54.808,74.9 52.708,70.6 z M51.008,76.1 C50.108,77.6 48.508,78.4 46.808,78.4 L6.608,78.4 C4.908,78.4 3.308,77.6 2.408,76.1 C1.508,74.7 1.408,72.9 2.208,71.4 L17.808,40.2 L17.808,21.6 L16.208,21.6 C15.808,21.6 15.408,21.2 15.408,20.8 C15.408,20.4 15.808,20 16.208,20 L37.208,20 C37.708,20 38.008,20.4 38.008,20.8 C38.008,21.3 37.608,21.6 37.208,21.6 L35.608,21.6 L35.608,40.2 L51.208,71.4 C52.008,72.9 51.908,74.7 51.008,76.1 z" fill="#B48EAD"/>
      <path d="M36.908,46 L16.408,46 L3.608,72.1 C3.108,73.1 3.208,74.3 3.808,75.2 C4.408,76.2 5.508,76.7 6.608,76.7 L46.808,76.7 C48.008,76.7 49.008,76.1 49.608,75.2 C50.208,74.2 50.308,73.1 49.808,72 L36.908,46 z M17.808,53.2 C17.808,51 19.608,49.2 21.808,49.2 C24.008,49.2 25.808,51 25.808,53.2 C25.808,55.4 24.008,57.2 21.808,57.2 C19.608,57.3 17.808,55.4 17.808,53.2 z M27.508,65.2 C25.708,65.2 24.308,63.8 24.308,62 C24.308,60.2 25.708,58.8 27.508,58.8 C29.308,58.8 30.708,60.2 30.708,62 C30.708,63.7 29.208,65.2 27.508,65.2 z M31.508,54 C31.508,52.7 32.608,51.6 33.908,51.6 C35.208,51.6 36.308,52.7 36.308,54 C36.308,55.3 35.208,56.4 33.908,56.4 C32.608,56.4 31.508,55.4 31.508,54 z M36.308,72.4 C35.008,72.4 33.908,71.3 33.908,70 C33.908,68.7 35.008,67.6 36.308,67.6 C37.608,67.6 38.708,68.7 38.708,70 C38.808,71.3 37.708,72.4 36.308,72.4 z M38.808,63.1 C37.908,63.1 37.208,62.4 37.208,61.5 C37.208,60.6 37.908,59.9 38.808,59.9 C39.708,59.9 40.408,60.6 40.408,61.5 C40.408,62.3 39.608,63.1 38.808,63.1 z" fill="#B48EAD"/>
      <path d="M33.108,37.9 C33.108,39.225 32.034,40.3 30.708,40.3 C29.383,40.3 28.308,39.225 28.308,37.9 C28.308,36.575 29.383,35.5 30.708,35.5 C32.034,35.5 33.108,36.575 33.108,37.9 z" fill="#B48EAD"/>
      <path d="M33.908,26.6 C33.908,28.367 32.476,29.8 30.708,29.8 C28.941,29.8 27.508,28.367 27.508,26.6 C27.508,24.833 28.941,23.4 30.708,23.4 C32.476,23.4 33.908,24.833 33.908,26.6 z" fill="#B48EAD"/>
      <path d="M25.008,33.1 C25.008,34.425 23.934,35.5 22.608,35.5 C21.283,35.5 20.208,34.425 20.208,33.1 C20.208,31.775 21.283,30.7 22.608,30.7 C23.934,30.7 25.008,31.775 25.008,33.1 z" fill="#B48EAD"/>
      <path d="M23.408,41.9 C23.408,42.784 22.692,43.5 21.808,43.5 C20.925,43.5 20.208,42.784 20.208,41.9 C20.208,41.016 20.925,40.3 21.808,40.3 C22.692,40.3 23.408,41.016 23.408,41.9 z" fill="#B48EAD"/>
      <path d="M33.908,4 C33.908,6.209 32.118,8 29.908,8 C27.699,8 25.908,6.209 25.908,4 C25.908,1.791 27.699,0 29.908,0 C32.118,0 33.908,1.791 33.908,4 z" fill="#B48EAD"/>
      <path d="M25.008,11 C25.008,12.767 23.576,14.2 21.808,14.2 C20.041,14.2 18.608,12.767 18.608,11 C18.608,9.233 20.041,7.8 21.808,7.8 C23.576,7.8 25.008,9.233 25.008,11 z" fill="#B48EAD"/>
      <path d="M29.908,14.2 C29.908,15.084 29.192,15.8 28.308,15.8 C27.425,15.8 26.708,15.084 26.708,14.2 C26.708,13.316 27.425,12.6 28.308,12.6 C29.192,12.6 29.908,13.316 29.908,14.2 z" fill="#B48EAD"/>
    </g>
  </g>
</svg>
